HIERARCHY
ROOT Hips
{
    OFFSET 0.000000 0.000000 0.000000
    CHANNELS 6 Xposition Yposition Zposition Zrotation Yrotation Xrotation
    JOINT LeftUpLeg
    {
        OFFSET 9.162498 -10.205075 3.799697
        CHANNELS 3 Zrotation Yrotation Xrotation
        JOINT LeftLeg
        {
            OFFSET 14.513953 -39.876781 0.000000
            CHANNELS 3 Zrotation Yrotation Xrotation
            JOINT LeftFoot
            {
                OFFSET 14.224848 -39.082561 0.000000
                CHANNELS 3 Zrotation Yrotation Xrotation
                JOINT LeftToeBase
                {
                    OFFSET 1.314863 -3.612473 11.865319
                    CHANNELS 3 Zrotation Yrotation Xrotation
                    End Site
                    {
                        OFFSET 0.000000 0.000000 0.000000
                    }
                }
            }
        }
    }
    JOINT RightUpLeg
    {
        OFFSET -8.357156 -10.205075 3.799697
        CHANNELS 3 Zrotation Yrotation Xrotation
        JOINT RightLeg
        {
            OFFSET -14.859335 -40.825722 0.000000
            CHANNELS 3 Zrotation Yrotation Xrotation
            JOINT RightFoot
            {
                OFFSET -14.380747 -39.510799 0.000000
                CHANNELS 3 Zrotation Yrotation Xrotation
                JOINT RightToeBase
                {
                    OFFSET -1.301994 -3.577195 11.975215
                    CHANNELS 3 Zrotation Yrotation Xrotation
                    End Site
                    {
                        OFFSET 0.000000 0.000000 0.000000
                    }
                }
            }
        }
    }
    JOINT Spine
    {
        OFFSET -0.118984 11.716251 -0.958476
        CHANNELS 3 Zrotation Yrotation Xrotation
        JOINT Spine1
        {
            OFFSET 0.286171 11.765131 -0.177291
            CHANNELS 3 Zrotation Yrotation Xrotation
            JOINT Neck1
            {
                OFFSET -0.605701 9.054070 1.770648
                CHANNELS 3 Zrotation Yrotation Xrotation
                JOINT Head
                {
                    OFFSET 0.474750 9.351585 -1.739717
                    CHANNELS 3 Zrotation Yrotation Xrotation
                    End Site
                    {
                        OFFSET 0.000000 0.000000 0.000000
                    }
                }
            }
            JOINT LeftShoulder
            {
                OFFSET 0.000000 0.000000 0.000000
                CHANNELS 3 Zrotation Yrotation Xrotation
                JOINT LeftArm
                {
                    OFFSET 19.886068 4.132773 -3.087148
                    CHANNELS 3 Zrotation Yrotation Xrotation
                    JOINT LeftForeArm
                    {
                        OFFSET 30.054285 -0.000000 -0.000000
                        CHANNELS 3 Zrotation Yrotation Xrotation
                        JOINT LeftHand
                        {
                            OFFSET 19.665203 -0.000000 -0.000000
                            CHANNELS 3 Zrotation Yrotation Xrotation
                            End Site
                            {
                                OFFSET 0.000000 0.000000 0.000000
                            }
                        }
                    }
                }
            }
            JOINT RightShoulder
            {
                OFFSET 0.000000 0.000000 0.000000
                CHANNELS 3 Zrotation Yrotation Xrotation
                JOINT RightArm
                {
                    OFFSET -19.290640 5.282707 -0.565512
                    CHANNELS 3 Zrotation Yrotation Xrotation
                    JOINT RightForeArm
                    {
                        OFFSET -30.117897 -0.000000 -0.000000
                        CHANNELS 3 Zrotation Yrotation Xrotation
                        JOINT RightHand
                        {
                            OFFSET -20.553181 -0.000000 -0.000000
                            CHANNELS 3 Zrotation Yrotation Xrotation
                            End Site
                            {
                                OFFSET 0.000000 0.000000 0.000000
                            }
                        }
                    }
                }
            }
        }
    }
}
MOTION
Frames: 10
Frame Time: 0.016667
-3.938098 94.085938 -12.631603 1.338500 -6.426703 4.789302 -19.405500 -2.905300 -8.766700 2.078101 9.026901 25.879604 0.869401 5.799700 -20.641005 1.244801 -7.074204 -19.935509 11.561905 11.492102 -11.235003 -3.102002 -10.858402 31.803820 -1.183900 5.730400 -19.466000 -0.024600 -1.011500 2.780601 -2.632142 -2.481355 0.452073 4.285102 -0.725700 0.358600 -2.346591 -14.503670 -4.087219 3.557301 -4.470603 10.747207 0.000000 0.000000 0.000000 -89.906204 2.137100 9.568401 14.273604 -23.124399 -2.934702 0.000000 0.000000 8.311100 0.000000 0.000000 0.000000 86.727402 1.818900 8.603904 -15.090508 24.272102 -3.263100 0.000000 0.000000 23.935701 
-3.928502 94.094406 -12.593222 1.471400 -6.437003 4.899601 -19.550194 -2.917400 -8.842203 2.057601 8.985106 25.748615 0.873000 5.775102 -20.658192 1.249300 -7.086402 -19.971613 11.386905 11.639503 -11.332901 -3.111000 -10.872501 31.851215 -1.198600 5.691899 -19.592213 -0.024100 -1.002600 2.756100 -2.781660 -2.532168 0.389820 4.456102 -0.730600 0.105300 -2.683387 -13.919165 -3.848320 3.496601 -4.298003 10.814402 0.000000 0.000000 0.000000 -90.169701 2.398701 9.293601 14.176199 -22.986105 -2.896601 0.000000 0.000000 8.627600 0.000000 0.000000 0.000000 86.668503 1.533901 8.541200 -15.195601 24.417900 -3.306400 0.000000 0.000000 23.665806 
-3.925116 94.092712 -12.563306 1.405500 -6.454802 4.910398 -19.482002 -2.909402 -8.805000 2.053401 8.976400 25.721596 0.880200 5.758200 -20.714705 1.216400 -6.996001 -19.703508 11.469400 11.718300 -11.305100 -3.113701 -10.876905 31.865711 -1.201600 5.667402 -19.618500 -0.025200 -1.025800 2.819800 -2.699544 -2.511684 0.467201 4.454703 -0.722500 0.035500 -2.840017 -13.450754 -3.846823 3.381701 -4.149005 10.750205 0.000000 0.000000 0.000000 -90.275505 2.372403 8.674998 14.204203 -23.025898 -2.907500 0.000000 0.000000 10.152200 0.000000 0.000000 0.000000 86.679802 1.415400 8.687200 -15.304010 24.567907 -3.351301 0.000000 0.000000 23.339899 
-3.903667 94.085938 -12.510248 1.409899 -6.362400 4.936698 -19.496408 -2.982000 -8.782300 2.057901 8.985704 25.750710 0.877200 5.729400 -20.667200 1.202500 -6.957300 -19.588800 11.461805 11.724403 -11.233109 -3.108902 -10.869305 31.840416 -1.211300 5.680100 -19.699100 -0.034400 -1.197000 3.290999 -2.628643 -2.545817 0.504109 4.392000 -0.729400 -0.043600 -2.869601 -12.776418 -3.883435 3.405402 -3.958801 10.793904 0.000000 0.000000 0.000000 -90.310303 2.437700 8.477500 14.227607 -23.059113 -2.916701 0.000000 0.000000 11.043004 0.000000 0.000000 0.000000 86.717834 1.221299 8.721505 -15.473505 24.801605 -3.422100 0.000000 0.000000 22.909401 
-3.874316 94.070702 -12.390023 1.452100 -6.516400 4.952400 -19.607304 -2.959300 -8.694307 2.056800 8.983404 25.743299 0.883200 5.858700 -20.811001 1.206600 -6.968800 -19.622892 11.380800 11.798199 -11.176796 -3.108101 -10.868098 31.836195 -1.216000 5.730903 -19.735701 -0.028100 -1.081700 2.973702 -2.622761 -2.405476 0.473172 4.331202 -0.690300 -0.012100 -2.917103 -11.979135 -3.978682 3.332700 -3.726701 10.937901 0.000000 0.000000 0.000000 -90.292999 2.435800 8.726500 14.094102 -22.869112 -2.864601 0.000000 0.000000 10.224304 0.000000 0.000000 0.000000 86.767609 1.225900 8.574502 -15.461602 24.785202 -3.417100 0.000000 0.000000 22.779900 
-3.867543 94.046425 -12.303099 1.476300 -6.643704 4.994600 -19.669201 -2.917200 -8.670600 2.053500 8.976700 25.722609 0.885301 5.939902 -20.885895 1.235300 -7.048099 -19.857800 11.328400 11.846799 -11.166194 -3.108700 -10.868899 31.839006 -1.214301 5.845401 -19.715710 -0.028100 -1.082700 2.976401 -2.608055 -2.312763 0.441357 4.331000 -0.668700 0.124700 -3.032428 -11.251638 -4.213484 3.360301 -3.520200 11.022900 0.000000 0.000000 0.000000 -90.317917 2.362302 8.999107 14.044702 -22.798605 -2.845400 0.000000 0.000000 9.766198 0.000000 0.000000 0.000000 86.732094 1.296601 8.362200 -15.452904 24.773209 -3.413400 0.000000 0.000000 22.943211 
-3.869236 94.054329 -12.253993 1.463201 -6.588802 5.011802 -19.646799 -2.933102 -8.657200 2.052700 8.975000 25.716999 0.875500 5.937404 -20.792793 1.176800 -6.885302 -19.376108 11.353206 11.811201 -11.153608 -3.106603 -10.865704 31.828215 -1.218100 5.856603 -19.746500 -0.037900 -1.256901 3.455901 -2.519775 -2.271265 0.531388 4.308998 -0.660800 0.218200 -3.197889 -10.616631 -4.504224 3.328303 -3.329001 10.982806 0.000000 0.000000 0.000000 -90.386803 2.227800 9.169800 14.078907 -22.847412 -2.858702 0.000000 0.000000 9.690305 0.000000 0.000000 0.000000 86.760414 1.453001 8.221000 -15.479106 24.809305 -3.424501 0.000000 0.000000 22.749201 
-3.876574 94.063934 -12.213917 1.458501 -6.488405 5.038102 -19.635412 -2.996100 -8.647305 2.050499 8.970500 25.703197 0.889701 5.934900 -20.923901 1.273000 -7.150903 -20.163307 11.377200 11.829000 -11.128603 -3.111101 -10.872703 31.851908 -1.230400 5.808802 -19.851601 -0.035100 -1.209601 3.325801 -2.473077 -2.255746 0.605511 4.292502 -0.649500 0.023900 -3.415718 -10.106075 -4.455809 3.176502 -3.163802 10.912600 0.000000 0.000000 0.000000 -90.388107 2.487600 9.079103 14.329611 -23.204008 -2.956803 0.000000 0.000000 11.322706 0.000000 0.000000 0.000000 86.815399 1.318700 8.216600 -15.454101 24.774811 -3.414000 0.000000 0.000000 22.172600 
-3.856254 94.045868 -12.199807 1.678301 -6.494003 5.165703 -19.905199 -3.125302 -8.744004 2.047101 8.963500 25.681402 0.882700 6.044104 -20.933514 1.272400 -7.149203 -20.158001 11.061909 11.715806 -11.381705 -3.126605 -10.897201 31.934134 -1.223101 5.958704 -19.782812 -0.037500 -1.249301 3.435102 -2.658751 -2.203712 0.555685 4.307002 -0.627000 -0.176600 -3.627289 -9.390337 -4.238278 3.206100 -2.962299 10.944504 0.000000 0.000000 0.000000 -90.431602 2.731300 9.279500 14.416609 -23.327208 -2.991102 0.000000 0.000000 11.061796 0.000000 0.000000 0.000000 86.750298 0.995100 8.496300 -15.588405 24.959402 -3.470502 0.000000 0.000000 21.775400 
-3.846094 94.039658 -12.119657 1.738899 -6.498898 5.256199 -20.000311 -3.179001 -8.740899 2.035401 8.939404 25.606089 0.875499 6.097902 -20.903507 1.247100 -7.080604 -19.954409 10.950594 11.703704 -11.501903 -3.146903 -10.929204 32.041428 -1.229000 6.061403 -19.827200 -0.031600 -1.147500 3.154800 -2.648124 -2.047854 0.510377 4.222304 -0.588100 -0.017400 -3.734332 -8.902474 -4.505379 3.181703 -2.821102 11.113604 0.000000 0.000000 0.000000 -90.399200 2.643703 9.784705 14.537603 -23.497990 -3.039201 0.000000 0.000000 10.301000 0.000000 0.000000 0.000000 86.824097 1.156800 8.081900 -15.513400 24.856501 -3.438899 0.000000 0.000000 22.028099 
